HIERARCHY
ROOT Hips
{
	OFFSET -0.001795 -0.223333 0.028219
	CHANNELS 6 Xposition Yposition Zposition Zrotation Yrotation Xrotation 
	JOINT LeftUpLeg
	{
		OFFSET 0.069520 -0.091406 -0.006815
		CHANNELS 3 Zrotation Yrotation Xrotation
		JOINT LeftLeg
		{
			OFFSET 0.034277 -0.375199 -0.004496
			CHANNELS 3 Zrotation Yrotation Xrotation
			JOINT LeftFoot
			{
				OFFSET -0.013596 -0.397961 -0.043693
				CHANNELS 3 Zrotation Yrotation Xrotation
				JOINT LeftToe
				{
					OFFSET 0.026358 -0.055791 0.119288
					CHANNELS 3 Zrotation Yrotation Xrotation
					End Site
					{
						OFFSET 0.000000 0.000000 0.000000
					}
				}
			}
		}
	}
	JOINT RightUpLeg
	{
		OFFSET -0.067670 -0.090522 -0.004320
		CHANNELS 3 Zrotation Yrotation Xrotation
		JOINT RightLeg
		{
			OFFSET -0.038290 -0.382569 -0.008850
			CHANNELS 3 Zrotation Yrotation Xrotation
			JOINT RightFoot
			{
				OFFSET 0.015774 -0.398415 -0.042312
				CHANNELS 3 Zrotation Yrotation Xrotation
				JOINT RightToe
				{
					OFFSET -0.025372 -0.048144 0.123348
					CHANNELS 3 Zrotation Yrotation Xrotation
					End Site
					{
						OFFSET 0.000000 0.000000 0.000000
					}
				}
			}
		}
	}
	JOINT Spine
	{
		OFFSET -0.002533 0.108963 -0.026696
		CHANNELS 3 Zrotation Yrotation Xrotation
		JOINT Spine1
		{
			OFFSET 0.005487 0.135180 0.001092
			CHANNELS 3 Zrotation Yrotation Xrotation
			JOINT Spine2
			{
				OFFSET 0.001457 0.052922 0.025425
				CHANNELS 3 Zrotation Yrotation Xrotation
				JOINT Neck
				{
					OFFSET -0.002778 0.213870 -0.042857
					CHANNELS 3 Zrotation Yrotation Xrotation
					JOINT Head
					{
						OFFSET 0.005152 0.064970 0.051349
						CHANNELS 3 Zrotation Yrotation Xrotation
						End Site
						{
							OFFSET 0.000000 0.000000 0.000000
						}
					}
				}
				JOINT LeftShoulder
				{
					OFFSET 0.078845 0.121749 -0.034090
					CHANNELS 3 Zrotation Yrotation Xrotation
					JOINT LeftArm
					{
						OFFSET 0.090977 0.030469 -0.008868
						CHANNELS 3 Zrotation Yrotation Xrotation
						JOINT LeftForeArm
						{
							OFFSET 0.259612 -0.012772 -0.027456
							CHANNELS 3 Zrotation Yrotation Xrotation
							JOINT LeftHand
							{
								OFFSET 0.249234 0.008986 -0.001171
								CHANNELS 3 Zrotation Yrotation Xrotation
								End Site
								{
									OFFSET 0.000000 0.000000 0.000000
								}
							}
						}
					}
				}
				JOINT RightShoulder
				{
					OFFSET -0.081759 0.118833 -0.038615
					CHANNELS 3 Zrotation Yrotation Xrotation
					JOINT RightArm
					{
						OFFSET -0.096012 0.032551 -0.009143
						CHANNELS 3 Zrotation Yrotation Xrotation
						JOINT RightForeArm
						{
							OFFSET -0.253742 -0.013329 -0.021401
							CHANNELS 3 Zrotation Yrotation Xrotation
							JOINT RightHand
							{
								OFFSET -0.255298 0.007772 -0.005559
								CHANNELS 3 Zrotation Yrotation Xrotation
								End Site
								{
									OFFSET 0.000000 0.000000 0.000000
								}
							}
						}
					}
				}
			}
		}
	}
}
MOTION
Frames: 13
Frame Time: 0.050000
0.000000 0.943377 0.000000 -0.568887 -0.303783 6.051680 4.472614 -0.352257 -4.462406 1.136761 0.036102 -3.602588 0.165174 3.546968 8.056857 0.000000 0.000000 0.000000 -1.891616 0.557873 -5.780083 -1.886785 0.157917 -0.642440 -0.983764 -5.161478 6.570082 0.000000 0.000000 0.000000 3.953228 0.190692 -4.060575 -1.811876 0.887194 -4.802662 -2.774356 3.802040 6.496392 3.665650 -1.352416 -10.690514 0.000000 0.000000 0.000000 -13.322604 -1.387035 -1.268863 -58.201477 -9.069528 -2.738561 -9.826670 -15.300683 1.779704 0.000000 0.000000 0.000000 12.543898 -5.280376 -2.994202 64.638719 4.694341 -3.515574 7.633689 18.447661 1.850953 0.000000 0.000000 0.000000 
0.000371 0.942415 0.001558 -0.939642 -0.987668 6.700054 4.532323 -0.316636 -3.738196 1.796387 0.071376 -5.325748 0.246657 3.631899 8.076068 0.000000 0.000000 0.000000 -2.001731 0.595182 -6.178524 -1.574302 0.133441 -0.484673 -0.386519 -3.950640 6.624168 0.000000 0.000000 0.000000 4.966599 0.254707 -4.821984 -2.535108 1.180335 -4.839460 -2.965388 4.713186 6.343144 2.729299 -0.643895 -10.885529 0.000000 0.000000 0.000000 -13.847200 -0.787481 -1.726610 -57.588973 -9.272760 -2.578915 -10.345019 -14.576639 1.741883 0.000000 0.000000 0.000000 12.230981 -5.949406 -3.213285 65.697500 4.169173 -3.747491 7.574686 18.457989 1.861139 0.000000 0.000000 0.000000 
0.000517 0.942619 0.002654 -0.536890 -0.345220 6.500361 4.276247 -0.314243 -3.622734 1.794708 0.034534 -4.564881 -0.124420 2.690215 7.138702 0.000000 0.000000 0.000000 -2.404479 0.585735 -6.168025 -1.567327 0.154751 -0.111882 -1.201781 -5.642682 6.600727 0.000000 0.000000 0.000000 4.450318 0.231210 -4.605392 -2.239384 1.068457 -6.352767 -3.313452 4.651743 7.218895 2.203783 -0.332978 -10.311745 0.000000 0.000000 0.000000 -13.415387 -1.114666 -1.548446 -57.692355 -9.095708 -2.783699 -10.159148 -13.403843 1.576895 0.000000 0.000000 0.000000 13.265682 -5.199330 -2.867692 64.329631 3.923783 -3.976108 7.325617 17.629009 1.741931 0.000000 0.000000 0.000000 
0.000598 0.942386 0.003582 -0.534462 -0.333302 7.008353 4.490482 -0.342846 -4.074523 1.509954 0.060207 -4.694310 -0.257337 2.469784 7.205176 0.000000 0.000000 0.000000 -2.495446 0.644546 -6.885465 -1.394844 0.138113 -0.089231 -1.301081 -5.961570 6.921694 0.000000 0.000000 0.000000 4.389080 0.247908 -4.921138 -2.546853 1.191752 -6.033374 -2.938682 4.608938 6.192234 1.710229 -0.165617 -8.938577 0.000000 0.000000 0.000000 -13.031202 -0.496902 -1.784049 -58.601006 -9.444350 -2.566184 -9.675126 -12.412643 1.404541 0.000000 0.000000 0.000000 11.891276 -5.737403 -3.047050 64.880720 3.425365 -4.084661 8.509148 17.359358 1.860000 0.000000 0.000000 0.000000 
0.000556 0.942740 0.004279 -0.456095 0.245411 6.978924 4.285928 -0.344685 -4.012859 1.693618 0.058470 -4.879223 -0.327376 2.370324 7.146989 0.000000 0.000000 0.000000 -2.442997 0.630314 -6.724263 -1.611149 0.148109 -0.344721 -1.589335 -6.557412 7.024331 0.000000 0.000000 0.000000 4.096756 0.237542 -4.858536 -1.978315 0.969592 -6.149244 -3.337269 4.421229 6.016405 1.556145 -0.009980 -9.222327 0.000000 0.000000 0.000000 -12.587095 -0.580554 -1.716706 -58.661892 -9.786667 -2.405220 -9.801202 -11.462844 1.303342 0.000000 0.000000 0.000000 11.744238 -5.981153 -3.122865 64.809234 3.359117 -4.069124 8.190033 16.778280 1.748717 0.000000 0.000000 0.000000 
0.000528 0.943055 0.004782 -0.360245 0.424330 7.202508 4.266600 -0.352869 -4.094051 1.682032 0.064936 -4.985947 -0.226885 2.646227 7.354525 0.000000 0.000000 0.000000 -2.520985 0.636031 -6.807013 -1.673701 0.132386 -0.756681 -1.450531 -6.388298 7.485099 0.000000 0.000000 0.000000 3.883943 0.233987 -4.893748 -1.984471 0.977316 -6.599260 -3.177801 4.472100 5.954192 1.350717 0.095572 -8.847047 0.000000 0.000000 0.000000 -12.579009 -0.345069 -1.842571 -58.720653 -9.932095 -2.333808 -9.874945 -11.004337 1.255269 0.000000 0.000000 0.000000 11.497759 -5.972912 -3.084768 64.821899 3.247067 -4.093834 8.078248 16.448573 1.693211 0.000000 0.000000 0.000000 
0.000583 0.943211 0.005122 -0.262561 0.696232 7.249035 4.092986 -0.359046 -4.153733 1.588544 0.077666 -5.120003 -0.237247 2.795837 7.738955 0.000000 0.000000 0.000000 -2.398116 0.626566 -6.670507 -2.029160 0.149782 -1.070464 -1.378935 -6.261757 7.647218 0.000000 0.000000 0.000000 3.714948 0.226149 -4.831327 -1.807147 0.910155 -6.576651 -3.343339 4.237114 5.863911 1.458046 0.049214 -9.119822 0.000000 0.000000 0.000000 -12.244518 0.027706 -1.949962 -58.921135 -10.069155 -2.280961 -10.042598 -11.315571 1.306866 0.000000 0.000000 0.000000 11.526650 -6.034527 -3.122820 64.795494 3.336784 -4.039048 7.672657 16.231393 1.614506 0.000000 0.000000 0.000000 
0.000791 0.943273 0.005370 -0.315294 0.755623 7.359778 3.967902 -0.378876 -4.474359 1.610324 0.058534 -4.742575 -0.144586 2.876107 7.490850 0.000000 0.000000 0.000000 -2.345889 0.614761 -6.503158 -2.134848 0.142606 -1.368033 -1.135022 -5.709194 7.541173 0.000000 0.000000 0.000000 3.636673 0.234212 -4.973034 -1.771417 0.895745 -6.520415 -3.346974 4.493064 5.807063 1.547861 -0.031711 -8.783681 0.000000 0.000000 0.000000 -12.141991 0.222085 -2.065563 -58.828602 -10.591372 -2.026794 -10.554242 -11.694980 1.395272 0.000000 0.000000 0.000000 11.790729 -6.289175 -3.229448 64.494160 3.498174 -3.919856 7.695181 15.934370 1.590088 0.000000 0.000000 0.000000 
0.001031 0.943385 0.005615 -0.283896 0.674279 7.440410 3.766646 -0.377669 -4.427789 1.600247 0.063814 -4.843055 -0.117929 2.862846 7.343320 0.000000 0.000000 0.000000 -2.429776 0.597221 -6.286209 -2.064711 0.106212 -1.877888 -1.097432 -5.655464 7.601373 0.000000 0.000000 0.000000 3.571143 0.237569 -5.037526 -1.672261 0.855079 -6.551215 -3.338762 4.599191 5.798411 1.642359 -0.103984 -8.693801 0.000000 0.000000 0.000000 -12.131401 0.288851 -2.102878 -59.177027 -11.176760 -1.748453 -10.383956 -12.056603 1.421329 0.000000 0.000000 0.000000 11.880606 -6.384907 -3.275368 64.281323 3.741648 -3.777512 7.648502 15.872340 1.578700 0.000000 0.000000 0.000000 
0.001227 0.943173 0.005862 -0.234609 0.662678 7.394405 3.710452 -0.380417 -4.478619 1.475514 0.053738 -4.460416 0.016123 2.999489 7.056170 0.000000 0.000000 0.000000 -2.661958 0.576621 -6.065107 -1.976216 0.085296 -2.109669 -1.108361 -5.656227 7.532641 0.000000 0.000000 0.000000 3.452986 0.250004 -5.220853 -1.565920 0.807493 -6.110612 -3.362991 4.628635 5.616693 1.758673 -0.191613 -8.621444 0.000000 0.000000 0.000000 -12.069535 0.453820 -2.173294 -59.201937 -11.873349 -1.386148 -10.699788 -12.555339 1.512343 0.000000 0.000000 0.000000 11.915197 -6.322400 -3.246104 63.995226 4.229505 -3.488357 7.571245 15.597389 1.536048 0.000000 0.000000 0.000000 
0.001319 0.942917 0.006108 -0.228185 0.319498 7.362264 3.629781 -0.371242 -4.349103 1.595483 0.036899 -4.290198 0.017890 2.847592 6.714514 0.000000 0.000000 0.000000 -2.813045 0.558284 -5.828965 -1.837058 0.067467 -2.195638 -0.952688 -5.299353 7.349474 0.000000 0.000000 0.000000 3.428193 0.261604 -5.358085 -1.609249 0.818497 -5.938652 -3.341717 4.678071 5.595104 1.797076 -0.280887 -8.196947 0.000000 0.000000 0.000000 -12.100204 0.365958 -2.117647 -59.016143 -12.047620 -1.280678 -10.940371 -13.354938 1.639360 0.000000 0.000000 0.000000 11.746844 -6.133603 -3.158909 64.096805 4.447863 -3.380934 7.976485 15.903718 1.619762 0.000000 0.000000 0.000000 
0.001353 0.942378 0.006341 -0.267546 0.320646 7.172088 3.974030 -0.368188 -4.368384 1.328459 0.025286 -3.638977 0.008126 2.654905 6.250171 0.000000 0.000000 0.000000 -2.770501 0.554868 -5.796519 -1.955325 0.105189 -1.709839 -0.849395 -5.030521 7.202382 0.000000 0.000000 0.000000 3.288542 0.252279 -5.217308 -1.391734 0.727861 -5.738126 -3.351295 4.373282 5.448230 2.269841 -0.579341 -8.609793 0.000000 0.000000 0.000000 -12.110138 0.589260 -2.176903 -58.848171 -12.047817 -1.252004 -11.291817 -14.183136 1.789563 0.000000 0.000000 0.000000 11.681320 -6.152433 -3.202600 63.894340 4.481150 -3.367299 8.390140 16.535901 1.743838 0.000000 0.000000 0.000000 
0.001465 0.942103 0.006496 -0.418820 0.003473 7.102804 4.094141 -0.369458 -4.459113 1.313235 0.001713 -3.115423 0.064987 2.592418 5.865834 0.000000 0.000000 0.000000 -2.704857 0.561575 -5.864082 -1.888521 0.122284 -1.280830 -0.598499 -4.441032 6.967352 0.000000 0.000000 0.000000 3.313725 0.253752 -5.199771 -1.228933 0.654339 -5.556176 -3.393999 4.190036 5.370523 2.486598 -0.737003 -8.743505 0.000000 0.000000 0.000000 -12.079195 0.650822 -2.147320 -58.601819 -11.761153 -1.369759 -11.875840 -14.974427 1.972748 0.000000 0.000000 0.000000 11.526735 -5.743376 -3.040283 63.865064 4.483723 -3.387319 8.790902 17.645473 1.929870 0.000000 0.000000 0.000000 
